HIERARCHY
ROOT Hips
{
  OFFSET 90.7885 88.945 -76.2838
  CHANNELS 6 Xposition Yposition Zposition Zrotation Xrotation Yrotation
  JOINT LeftUpLeg
  {
    OFFSET 8.64259 1.95398 -2.38835
    CHANNELS 3 Zrotation Xrotation Yrotation
    JOINT LeftLeg
    {
      OFFSET 43.7702 0 0
      CHANNELS 3 Zrotation Xrotation Yrotation
      JOINT LeftFoot
      {
        OFFSET 40.6238 0 0
        CHANNELS 3 Zrotation Xrotation Yrotation
        JOINT LeftToeBase
        {
          OFFSET 12.7242 0 0
          CHANNELS 3 Zrotation Xrotation Yrotation
          End Site
          {
            OFFSET 0 0 0
          }
        }
      }
    }
  }
  JOINT RightUpLeg
  {
    OFFSET -8.2249 1.95398 -2.59336
    CHANNELS 3 Zrotation Xrotation Yrotation
    JOINT RightLeg
    {
      OFFSET 43.5653 0 0
      CHANNELS 3 Zrotation Xrotation Yrotation
      JOINT RightFoot
      {
        OFFSET 40.6238 0 0
        CHANNELS 3 Zrotation Xrotation Yrotation
        JOINT RightToeBase
        {
          OFFSET 12.7242 0 0
          CHANNELS 3 Zrotation Xrotation Yrotation
          End Site
          {
            OFFSET 0 0 0
          }
        }
      }
    }
  }
  JOINT Spine
  {
    OFFSET 0.165834 0.87714 6.61349
    CHANNELS 3 Zrotation Xrotation Yrotation
    JOINT Spine1
    {
      OFFSET 7.38963 1.71661e-005 0
      CHANNELS 3 Zrotation Xrotation Yrotation
      JOINT Spine2
      {
        OFFSET 11.9445 1.14441e-005 0
        CHANNELS 3 Zrotation Xrotation Yrotation
        JOINT Spine3
        {
          OFFSET 14.7254 4.19617e-005 0
          CHANNELS 3 Zrotation Xrotation Yrotation
          JOINT Spine4
          {
            OFFSET 10.9679 0 0
            CHANNELS 3 Zrotation Xrotation Yrotation
            JOINT RightShoulder
            {
              OFFSET 2.46616 -1.6653 3.69651
              CHANNELS 3 Zrotation Xrotation Yrotation
              JOINT RightArm
              {
                OFFSET 13.0012 0 0
                CHANNELS 3 Zrotation Xrotation Yrotation
                JOINT RightForeArm
                {
                  OFFSET 28.7848 1.52588e-005 0
                  CHANNELS 3 Zrotation Xrotation Yrotation
                  JOINT RightHand
                  {
                    OFFSET 26.5688 1.52588e-005 0
                    CHANNELS 3 Zrotation Xrotation Yrotation
                    End Site
                    {
                      OFFSET 0 0 0
                    }
                  }
                }
              }
            }
            JOINT LeftShoulder
            {
              OFFSET 2.38034 -1.29275 -3.7523
              CHANNELS 3 Zrotation Xrotation Yrotation
              JOINT LeftArm
              {
                OFFSET 16.3182 6.10352e-005 0
                CHANNELS 3 Zrotation Xrotation Yrotation
                JOINT LeftForeArm
                {
                  OFFSET 27.0901 0 0
                  CHANNELS 3 Zrotation Xrotation Yrotation
                  JOINT LeftHand
                  {
                    OFFSET 24.5451 1.52588e-005 0
                    CHANNELS 3 Zrotation Xrotation Yrotation
                    End Site
                    {
                      OFFSET 0 0 0
                    }
                  }
                }
              }
            }
            JOINT Neck
            {
              OFFSET 5.0226 -0.0266342 0
              CHANNELS 3 Zrotation Xrotation Yrotation
              JOINT Head
              {
                OFFSET 6.69363 2.86102e-005 0
                CHANNELS 3 Zrotation Xrotation Yrotation
                End Site
                {
                  OFFSET 0 0 0
                }
              }
            }
          }
        }
      }
    }
  }
}
MOTION
Frames:	15
Frame Time:	0.0416667
38.2923 94.7175 -321.328 -147.398 -84.0421 -144.217 -174.292 -16.6869 91.5972 -21.5572 10.4302 -1.05131 87.7858 10.2683 -1.87034 22.8451 -1.12847 2.48765 175.707 21.0097 98.0266 -7.2184 -19.9902 2.03286 47.0337 6.57657 -3.18444 65.377 -2.86624 -6.16364 -0.635865 7.98229 -90.2336 10.9077 -1.37395 -0.334959 -0.762512 -1.38736 -0.274162 -23.3021 -1.20975 -0.732449 -3.28944 -1.20977 -0.732463 88.1394 -34.8075 -108.474 39.3993 -8.19287 5.43399 -6.00557 -24.7066 -29.5894 -12.0877 -1.72669 4.2901 -89.9764 -51.187 79.0147 -15.7714 5.55613 -36.6115 15.6341 12.9615 -25.7688 2.60899 -0.206526 -7.03604 9.23529 0.10314 -12.8308 -0.619568 2.95603 3.67307 
37.9359 94.6176 -310.459 -159.878 -83.9394 -155.227 -171.258 -23.7035 95.3038 -18.8272 12.9628 -0.571814 78.3568 8.03203 -1.56089 36.145 0.871539 -3.02707 177.574 24.0961 100.06 -28.4914 -10.4204 -0.272981 59.0143 0.993684 -1.6707 25.8149 -3.79939 10.0009 -0.750718 7.87648 -90.6022 11.1115 -1.77382 -1.02687 -0.558633 -1.81729 -0.947803 -23.097 -1.38322 -1.51252 -3.0843 -1.38322 -1.51252 88.8438 -33.9923 -107.478 40.335 -7.67547 5.52314 7.62234 -24.5283 -5.51389 -20.183 -0.685053 -8.81559 -90.1075 -53.8099 79.3632 -15.8373 11.3611 -32.643 11.2728 14.2427 -18.2651 0.996884 -0.147564 -6.67221 9.85553 0.786473 -9.16614 -2.00412 2.82619 2.39546 
37.5403 94.8248 -300.249 -169.717 -82.0147 -163.921 -166.708 -12.0345 101.862 -45.8751 23.3545 1.08522 61.3565 1.27131 -0.94154 30.4899 3.12536 -5.45148 176.769 19.7166 101.303 -38.6012 -8.77218 0.366744 68.8259 -3.66724 -1.84389 18.8543 -2.92368 7.46412 -0.605362 7.92199 -90.8303 11.018 -1.58987 -1.50111 -0.652792 -1.6544 -1.42968 -23.185 -1.0653 -1.90943 -3.17235 -1.06531 -1.90943 89.1264 -33.1933 -107.243 40.4226 -6.88248 4.77765 5.89956 -25.5327 -8.79982 -19.2127 -0.690945 -8.7341 -90.1827 -53.3696 79.1657 -17.5892 18.6257 -28.7722 2.1675 17.9244 -2.68592 0.0411932 -0.0649178 -3.23639 8.55416 0.516788 -7.39138 -2.8446 2.06109 2.39201 
37.1621 96.02 -292.363 -177.361 -81.7695 -171.575 -168.059 6.99555 101.698 -68.4437 20.6345 3.48176 62.8913 2.10014 2.56974 14.3112 3.21415 -1.3849 176.504 12.2649 100.846 -36.4172 -9.83825 0.397036 73.4115 -5.98518 -2.8947 20.3926 -2.40565 6.40458 -0.282205 7.98756 -90.8141 10.8878 -0.938135 -1.53051 -0.783562 -1.00458 -1.48775 -23.3125 -0.434865 -1.74164 -3.29985 -0.434866 -1.74164 89.064 -32.8616 -107.485 38.5277 -9.80517 -0.560271 4.16439 -23.0863 -12.2959 -24.7014 -0.773978 -6.97553 -90.1378 -55.1433 79.5835 -18.0764 19.3081 -20.1295 0.52501 17.4905 -0.133692 -1.18102 -0.0735782 -2.85403 8.01579 -0.536579 -6.15811 -2.02525 0.756506 1.70961 
37.5534 97.8682 -284.537 -165.685 -81.5418 -163.616 -171.411 18.7177 95.0731 -64.3886 7.05753 1.52569 70.2539 5.57922 2.69155 11.4752 1.69156 0.745801 174.96 3.61887 96.264 -30.6717 -14.3534 -0.929721 75.7303 -7.09581 -3.07978 21.3746 -2.67425 6.86759 0.383175 7.96795 -90.2826 10.9395 0.632127 -0.622003 -0.731457 0.604144 -0.64922 -23.2673 0.789835 -0.403268 -3.25461 0.789841 -0.403256 88.7662 -32.2969 -108.268 36.104 -11.8658 -6.39489 2.65226 -24.1805 -15.9476 -29.133 -1.42353 -4.08223 -89.29 -55.0695 80.7702 -18.7706 18.5661 -6.78064 4.92057 11.0088 -11.226 -1.79527 -0.087444 -3.75807 4.73754 -1.56211 -4.10185 -0.204879 -0.793089 0.0649998 
38.4694 98.4052 -276.556 -146.528 -81.9078 -147.773 -174.597 23.8803 90.1603 -41.3787 -0.478863 -1.58296 66.7561 4.08835 -2.50779 14.3048 2.05132 -0.105934 171.918 -1.4279 91.6787 -26.608 -21.5934 -1.25315 78.4019 -9.09789 -4.57014 20.3612 -2.65317 6.89199 0.980391 7.89288 -89.8923 11.0874 2.00158 0.0218513 -0.581962 2.0006 -0.0663052 -23.1287 1.90243 0.62261 -3.11605 1.90243 0.622619 88.2739 -30.1784 -110.084 32.6367 -13.2955 -11.6393 -0.366418 -26.2316 -20.9361 -27.8147 -1.25633 -5.32693 -87.7909 -55.1673 82.9122 -17.983 17.6405 0.925752 5.53304 5.16563 -16.3482 -2.32154 -0.0922222 -6.17219 4.16837 -1.434 1.60993 -0.291236 -1.73445 -3.07678 
39.1714 97.1641 -267.429 -146.346 -80.6219 -148.256 -178.366 20.6782 88.6036 -13.1002 1.18131 -1.97415 63.4836 3.08691 -0.0205947 14.3074 0.86171 1.21743 168.926 -10.2537 85.8498 -23.1627 -24.5784 -1.09792 81.7579 -11.3622 -5.12263 23.275 -2.53059 6.43003 1.22947 8.08472 -89.9169 10.7063 2.48673 -0.0628642 -0.962242 2.48155 -0.172325 -23.5155 2.39058 0.687847 -3.50283 2.39057 0.687835 88.1198 -29.0231 -110.894 27.008 -13.6534 -17.0404 -3.77389 -29.7196 -25.7808 -29.0967 -1.15381 -6.96715 -88.4577 -58.196 82.4709 -16.3773 14.7322 4.56688 4.84434 1.84934 -12.8725 -2.76418 -0.0815005 -6.53558 3.87224 -0.973996 6.3731 0.669221 -2.15915 -4.18407 
39.6019 95.385 -256.88 -137.149 -79.4724 -140.564 -179.987 19.0009 86.8144 -7.43866 -3.9283 -1.94838 58.4697 1.91738 -2.44366 13.0057 -0.096179 2.47515 165.481 -16.5859 81.3034 -23.1647 -27.6615 -1.83597 83.7387 -12.9915 -5.27135 27.244 -2.69935 6.43801 1.37284 8.08486 -89.7007 10.7035 2.87185 0.331563 -0.964314 2.88367 0.204732 -23.5216 2.63935 1.17993 -3.50898 2.63935 1.17991 87.4586 -29.6957 -111.894 25.8883 -11.4081 -19.9325 -5.18925 -29.7921 -26.3852 -30.7979 -1.33007 -6.22246 -88.3118 -60.3795 83.0154 -16.2694 13.8561 6.10806 3.49982 -2.48577 -6.98591 -2.46049 -0.0853204 -4.56286 4.25525 -0.376929 6.7874 1.28247 -1.66722 -3.63343 
39.7585 95.5051 -244.86 -126.492 -77.9137 -131.314 -177.803 20.6835 85.1055 -20.5395 -0.663333 -3.40052 57.1597 -0.353194 -1.52805 9.20086 2.88438 -0.142416 164.575 -18.8481 77.7127 -27.8552 -28.7806 -5.3513 72.8275 -7.10598 -4.76079 40.322 -4.43926 10.773 1.58546 7.85929 -89.413 11.1457 3.42842 0.834251 -0.520885 3.46181 0.682367 -23.0836 3.0191 1.82684 -3.07092 3.0191 1.82684 87.372 -30.4454 -111.723 31.087 -12.3342 -17.2532 -3.29493 -28.3687 -23.8321 -30.9391 -1.1555 -6.53778 -87.974 -61.541 83.6405 -16.2516 12.0769 4.615 3.81389 -2.11091 -2.13841 -3.83924 -0.0906056 -4.36368 4.89289 -0.485357 5.16752 -1.5793 -1.42694 -3.46522 
39.7292 96.2976 -233.19 -137.587 -77.5066 -144.08 -176.245 16.3916 82.5698 -31.6783 1.66324 -5.0996 67.9403 3.50968 -1.29312 6.72736 0.0298309 3.1141 167.956 -13.3377 76.7024 -47.5195 -28.7315 -8.06237 55.3658 1.66034 0.162634 34.2585 -3.59951 8.88216 1.29751 7.93889 -89.1661 10.978 2.96919 1.37613 -0.69018 3.02688 1.24401 -23.239 2.41838 2.2051 -3.22638 2.41839 2.20509 87.4337 -30.1969 -111.716 36.9761 -16.4489 -12.7594 0.900362 -29.8695 -18.6943 -27.0358 -0.823712 -8.48181 -88.6586 -61.04 82.6546 -15.4056 11.2202 -0.535555 4.39181 -0.95727 -2.48544 -4.32413 -0.0897222 -4.4431 3.93204 -0.586568 4.18348 -1.34655 -1.3231 -3.80202 
39.4012 97.0917 -224.702 -134.668 -77.1849 -140.898 -177.061 11.3176 82.3643 -33.2063 0.495408 -5.12007 74.325 5.62584 -0.830806 8.70925 -0.680845 3.60068 175.74 -0.0714726 80.0471 -63.1073 -25.1293 -7.69644 59.5191 -0.583764 0.682691 23.9507 -0.463029 1.87406 1.07757 7.95132 -89.2432 10.9585 2.4956 1.26725 -0.710588 2.54896 1.15613 -23.2544 1.9994 1.95879 -3.24174 1.99941 1.95879 87.6945 -29.986 -111.301 40.5322 -18.0085 -9.07834 3.50171 -33.0541 -14.4252 -23.0215 -1.22093 -7.35643 -89.348 -61.0481 81.7408 -10.1943 13.4483 -12.4414 3.40941 0.333946 -3.73964 -1.18531 -0.0907299 -4.35233 3.16495 0.177809 4.37784 -1.56306 -0.564597 -3.27064 
38.6363 98.4099 -216.892 -139.256 -77.9985 -142.932 -178.562 4.6007 83.5035 -30.377 0.0999216 -2.21961 77.3698 5.83684 -1.65592 11.4138 -0.801075 3.44341 178.102 10.1412 84.721 -58.7085 -11.9649 -5.49211 73.4928 -7.33978 0.0286756 22.0414 0.0219132 1.40414 0.571171 8.02691 -89.5887 10.8159 1.32726 0.694603 -0.854576 1.35655 0.635506 -23.3919 1.05715 1.0614 -3.37926 1.05716 1.0614 88.3069 -30.68 -109.811 42.5358 -15.89 -4.41132 4.04414 -28.098 -14.2001 -24.2913 -1.29603 -5.39743 -89.5911 -58.2127 80.9186 -8.29877 12.2825 -22.7374 4.72676 1.61982 -8.84725 -1.6707 -0.0927372 -6.19862 2.501 1.46595 2.66076 -1.44897 1.00662 -1.55311 
37.535 98.8872 -208.923 -148.746 -79.9633 -149.995 -178.171 -2.52189 85.8219 -26.1994 2.9647 -0.650856 80.6599 6.85934 -1.94206 12.4465 -1.75886 4.38565 176.916 15.8392 89.2474 -36.7076 -6.51773 -3.19535 69.3216 -6.0283 -0.969955 23.458 -1.23867 3.7254 -0.0298067 8.05865 -89.9363 10.7566 -0.0299321 0.129383 -0.914374 -0.0242067 0.130567 -23.4495 -0.0674428 0.114402 -3.43683 -0.0674317 0.114409 88.1974 -31.163 -109.817 42.8656 -12.7667 1.06467 1.84519 -26.7026 -17.3616 -23.3235 -1.1289 -5.8948 -89.3249 -54.5863 80.631 -9.1032 9.52356 -31.0943 7.37996 4.07915 -14.1743 0.809187 -0.164218 -7.02255 2.50024 2.35316 0.367948 -1.29166 2.25767 -0.0586075 
36.343 97.9785 -199.812 -153.249 -80.8512 -154.007 -177.229 -10.2113 87.6206 -22.4848 3.92123 -0.462206 84.7401 8.48655 -2.67872 13.1107 -1.16576 3.65276 174.918 15.2734 91.0434 -9.04899 -11.3937 -0.988219 62.6113 -2.88952 -2.86414 23.1272 -1.86344 5.06749 -0.242899 8.12042 -90.011 10.6329 -0.488767 0.0225361 -1.03797 -0.487303 0.0440183 -23.5738 -0.472947 -0.125403 -3.56114 -0.472945 -0.125404 88.4308 -32.529 -108.813 42.0622 -10.6344 4.72808 2.16514 -27.2452 -17.5651 -23.7613 -0.732759 -8.46231 -89.8067 -52.8645 79.607 -8.29796 7.33672 -36.5121 10.9896 8.09838 -21.9018 3.45643 -0.183234 -6.25469 3.216 2.13745 -2.84077 -1.46095 2.58523 1.22782 
34.9972 95.9646 -189.363 -165.922 -81.611 -165.874 -174.526 -17.8835 90.9512 -20.993 7.96302 -0.746744 87.6425 10.5194 -2.47461 18.836 -2.99438 5.61695 175.552 19.3571 92.5465 -11.5039 -12.9777 -1.34683 63.9606 -2.17538 -1.50916 22.6751 -1.06183 3.46484 -0.455365 8.13846 -90.0901 10.5974 -0.948365 -0.0942045 -1.07324 -0.95159 -0.0523731 -23.6109 -0.876203 -0.37489 -3.59823 -0.876202 -0.374887 88.4072 -33.433 -108.503 42.4568 -9.86191 5.87428 5.44824 -26.4042 -11.7892 -22.7078 -0.777504 -8.00629 -90.1332 -54.4853 79.4617 -9.19654 5.4659 -38.8665 15.1051 12.8488 -26.6442 0.913696 -0.160984 -6.77688 4.5444 1.66043 -4.23185 -2.20596 2.38634 0.46409 
